# xmcd CD database file
#
# Track frame offsets:
#	150
#	20847
#	46460
#	67117
#	97660
#	123280
#	150802
#	172230
#	195575
#	218475
#	243880
#	262685
#
# Disc length: 3774 seconds
#
# Revision: 0
# Processed by: cddbd v1.5.2PL0 Copyright (c) Steve Scherf et al.
# Submitted via: CDex 1.51
#
DISCID=940ebc0c
DTITLE=Alan Barnes - Yesterdays
DYEAR=1996
DGENRE=Jazz
TTITLE0=I Told Every Little Star
TTITLE1=Yesterdays
TTITLE2=Bill
TTITLE3=The Folks Who Live On The Hill
TTITLE4=All The Things You Are
TTITLE5=They Didn't Believe Me
TTITLE6=Dearly Beloved
TTITLE7=Look For The Silver Lining
TTITLE8=Smoke Gets In Your Eyes
TTITLE9=Pick Yourself Up
TTITLE10=I'm Oldfashioned
TTITLE11=Long Ago And Far Away
EXTD=YEAR: 1996
EXTT0=
EXTT1=
EXTT2=
EXTT3=
EXTT4=
EXTT5=
EXTT6=
EXTT7=
EXTT8=
EXTT9=
EXTT10=
EXTT11=
PLAYORDER=
